<?xml version="1.0" standalone="no"?>
<!DOCTYPE svg PUBLIC "-//W3C//DTD SVG 20010904//EN"
 "http://www.w3.org/TR/2001/REC-SVG-20010904/DTD/svg10.dtd">
<svg version="1.0" xmlns="http://www.w3.org/2000/svg"
 width="512.000000pt" height="512.000000pt" viewBox="0 0 512.000000 512.000000"
 preserveAspectRatio="xMidYMid meet">

<g transform="translate(0.000000,512.000000) scale(0.100000,-0.100000)"
fill="#000000" stroke="none">
<path d="M948 4869 c-16 -9 -18 -26 -18 -129 l0 -118 -222 -4 c-200 -3 -228
-6 -269 -24 -66 -31 -114 -78 -146 -142 l-28 -57 0 -1965 0 -1965 24 -53 c31
-70 107 -137 175 -157 45 -13 260 -15 1736 -13 l1685 3 45 21 c56 27 113 83
142 143 l23 46 3 648 3 649 370 599 c204 330 375 614 380 631 12 42 1 100 -25
139 -25 35 -367 252 -427 271 -89 26 -148 -10 -230 -143 l-64 -102 -5 624 c-5
608 -6 625 -26 670 -31 66 -78 114 -142 146 -56 28 -60 28 -274 31 l-218 4 0
101 c0 62 -5 112 -13 127 -15 31 -52 37 -78 14 -17 -15 -19 -31 -19 -131 l0
-113 -350 0 -350 0 0 120 c0 108 -2 120 -19 130 -27 14 -47 13 -65 -6 -13 -12
-16 -39 -16 -130 l0 -114 -350 0 -350 0 0 114 c0 91 -3 118 -16 130 -18 19
-38 20 -65 6 -17 -10 -19 -22 -19 -130 l0 -120 -350 0 -350 0 0 114 c0 91 -3
118 -16 130 -18 18 -41 20 -66 5z m-18 -454 l0 -95 -47 -24 c-59 -29 -86 -57
-112 -116 -29 -64 -27 -126 7 -191 72 -139 251 -168 361 -58 110 110 79 298
-59 361 l-50 23 0 97 0 98 350 0 350 0 -1 -97 0 -98 -52 -25 c-60 -30 -111
-96 -122 -160 -31 -184 163 -325 331 -239 162 83 161 319 -3 399 l-52 25 0 98
-1 97 350 0 350 0 0 -98 0 -97 -50 -23 c-138 -63 -169 -251 -59 -361 133 -132
360 -56 385 130 13 93 -30 175 -119 228 l-57 34 0 93 0 94 350 0 350 0 0 -99
0 -99 -34 -12 c-79 -26 -140 -118 -139 -211 2 -169 181 -276 333 -199 46 24
74 55 99 110 50 110 0 246 -108 295 l-41 18 0 99 0 98 205 0 c233 0 258 -6
312 -77 l28 -36 3 -388 3 -388 -918 4 c-505 3 -1320 5 -1810 5 l-893 0 0 370
c0 344 1 373 19 408 47 91 79 101 334 102 l207 0 0 -95z m110 -220 c56 -29 77
-109 44 -165 -46 -76 -159 -80 -208 -6 -18 29 -21 97 -5 127 27 52 112 73 169
44z m800 0 c16 -9 36 -29 45 -45 43 -84 -13 -180 -105 -180 -92 0 -148 96
-105 180 29 55 105 76 165 45z m800 0 c40 -21 60 -53 60 -98 0 -50 -23 -93
-60 -112 -108 -56 -221 57 -165 165 28 55 105 76 165 45z m819 -11 c88 -74 35
-214 -81 -214 -84 0 -145 106 -103 177 39 66 128 84 184 37z m531 -943 l0
-280 -376 -608 c-207 -334 -382 -621 -390 -638 -13 -29 -64 -512 -64 -605 0
-25 7 -56 16 -68 23 -34 72 -55 111 -49 19 3 143 75 291 168 l258 162 75 121
74 121 3 -543 2 -544 -22 -40 c-14 -24 -41 -51 -68 -66 l-45 -27 -1665 0
c-916 0 -1677 3 -1692 8 -38 10 -98 65 -114 104 -12 27 -14 298 -14 1548 l0
1515 1810 0 1810 0 0 -279z m563 -57 c94 -58 178 -113 185 -122 22 -28 13 -56
-53 -164 l-65 -106 -216 133 c-118 73 -218 135 -220 138 -4 4 75 138 118 200
33 46 61 38 251 -79z m-337 -267 l82 -52 -229 -370 c-126 -203 -229 -376 -229
-384 0 -22 31 -51 55 -51 12 0 29 8 37 18 8 9 113 177 233 372 120 195 219
356 221 358 6 9 174 -104 170 -115 -3 -6 -179 -293 -391 -636 l-386 -625 -216
134 c-119 74 -218 136 -220 138 -2 2 161 271 363 597 448 726 413 669 422 669
4 0 44 -24 88 -53z m-710 -1439 c101 -62 183 -115 184 -118 0 -3 -34 -26 -75
-52 l-75 -47 -16 24 c-26 40 -110 96 -172 115 l-57 18 3 54 c3 67 11 118 19
118 3 0 88 -51 189 -112z m-161 -187 c41 -18 105 -67 105 -80 0 -9 -164 -111
-179 -111 -9 0 -11 11 -7 38 3 20 8 67 11 105 4 41 11 67 18 67 7 0 30 -9 52
-19z"/>
<path d="M892 3235 c-22 -16 -22 -19 -22 -260 l0 -245 23 -15 c21 -14 167 -15
1301 -13 1122 3 1278 5 1286 18 13 20 13 490 0 510 -8 13 -164 15 -1287 18
-1147 2 -1281 1 -1301 -13z m2498 -260 l0 -165 -1210 0 -1210 0 0 165 0 165
1210 0 1210 0 0 -165z"/>
<path d="M1164 2409 c-17 -19 -17 -23 -3 -47 l15 -27 1026 -3 c923 -2 1028 -1
1042 14 19 18 21 55 4 72 -9 9 -253 12 -1038 12 -1026 0 -1027 0 -1046 -21z"/>
<path d="M692 2038 c-15 -15 -15 -61 0 -76 9 -9 160 -12 619 -12 539 0 609 2
623 16 20 19 20 34 0 62 l-15 22 -608 0 c-459 0 -610 -3 -619 -12z"/>
<path d="M2378 2039 c-21 -12 -24 -59 -6 -77 17 -17 859 -17 876 0 17 17 15
54 -4 72 -14 14 -66 16 -432 16 -265 0 -423 -4 -434 -11z"/>
<path d="M698 1659 c-22 -13 -24 -62 -2 -83 14 -14 125 -16 1077 -16 1159 0
1107 -3 1107 55 0 58 52 55 -1105 55 -701 -1 -1066 -4 -1077 -11z"/>
<path d="M692 1268 c-19 -19 -15 -66 7 -78 13 -6 155 -10 395 -10 l376 0 16
25 c15 23 15 27 0 50 l-16 25 -383 0 c-285 0 -386 -3 -395 -12z"/>
<path d="M1772 1268 c-19 -19 -15 -66 7 -78 13 -6 202 -10 544 -10 514 0 524
0 542 20 15 16 17 26 9 48 l-9 27 -541 3 c-411 2 -543 -1 -552 -10z"/>
<path d="M692 878 c-15 -15 -15 -61 0 -76 9 -9 256 -12 1050 -12 1015 0 1038
0 1048 19 14 27 13 47 -6 65 -14 14 -123 16 -1048 16 -789 0 -1035 -3 -1044
-12z"/>
<path d="M4256 4584 c-21 -20 -20 -38 5 -109 17 -49 22 -92 27 -233 5 -169 6
-174 28 -184 18 -9 29 -7 50 6 l26 18 -4 181 c-4 157 -7 191 -27 247 -30 87
-67 113 -105 74z"/>
<path d="M4302 3918 c-16 -16 -16 -110 0 -126 17 -17 54 -15 72 4 18 18 21 85
6 115 -12 22 -59 26 -78 7z"/>
<path d="M4778 2478 c-26 -21 -328 -514 -328 -537 0 -28 45 -57 70 -45 20 9
340 517 340 539 0 35 -55 63 -82 43z"/>
<path d="M4348 1780 c-24 -14 -78 -106 -78 -133 0 -31 18 -47 52 -47 22 0 34
10 63 55 41 64 44 97 13 119 -26 18 -27 19 -50 6z"/>
</g>
</svg>
