<?xml version="1.0" standalone="no"?>
<!DOCTYPE svg PUBLIC "-//W3C//DTD SVG 20010904//EN"
 "http://www.w3.org/TR/2001/REC-SVG-20010904/DTD/svg10.dtd">
<svg version="1.0" xmlns="http://www.w3.org/2000/svg"
 width="96.000000pt" height="96.000000pt" viewBox="0 0 96.000000 96.000000"
 preserveAspectRatio="xMidYMid meet">

<g transform="translate(0.000000,96.000000) scale(0.100000,-0.100000)"
fill="#000000" stroke="none">
<path d="M680 835 l-34 -35 77 -78 77 -77 37 38 38 37 -75 75 c-41 41 -77 75
-80 75 -3 0 -21 -16 -40 -35z"/>
<path d="M392 547 l-182 -183 30 -11 c22 -8 32 -20 36 -41 5 -23 13 -31 35
-36 21 -4 34 -15 42 -35 l13 -30 184 184 185 185 -75 75 c-41 41 -77 75 -80
75 -3 0 -87 -82 -188 -183z"/>
<path d="M146 249 c-3 -13 -9 -47 -14 -75 l-9 -50 69 11 c38 7 70 14 73 17 2
2 -22 30 -55 63 -56 56 -59 57 -64 34z"/>
</g>
</svg>
